<svg width="26" height="26" viewBox="0 0 26 26" fill="none" xmlns="http://www.w3.org/2000/svg">
<path d="M16.9143 4.14672C17.4173 3.58032 17.8009 2.92243 18.0429 2.21081C18.285 1.49919 18.3807 0.747876 18.3247 0C16.7804 0.121785 15.3469 0.831368 14.333 1.97587C13.8475 2.5244 13.4795 3.16253 13.251 3.85248C13.0224 4.54243 12.9379 5.27017 13.0024 5.9926C13.7557 5.99873 14.5004 5.83544 15.1787 5.51535C15.8571 5.19526 16.4509 4.72697 16.9143 4.14672ZM20.2674 13.8181C20.2763 12.822 20.5448 11.8446 21.0477 10.978C21.5506 10.1115 22.2711 9.38441 23.1414 8.86541C22.5922 8.09227 21.8661 7.45479 21.0208 7.00351C20.1755 6.55223 19.2342 6.29958 18.2715 6.26558C16.1958 6.0576 14.2798 7.44851 13.1754 7.44851C12.071 7.44851 10.5143 6.29158 8.78451 6.31758C7.6537 6.35397 6.55184 6.67607 5.58641 7.25246C4.62098 7.82885 3.82494 8.63985 3.27594 9.60636C0.93413 13.5841 2.67718 19.4987 5.01899 22.7095C6.08345 24.2824 7.41402 26.0633 9.17038 25.9983C10.9267 25.9333 11.4989 24.9323 13.5347 24.9323C15.5704 24.9323 16.1958 25.9983 17.9255 25.9593C19.6553 25.9203 20.8794 24.3474 21.9971 22.7745C22.7889 21.6325 23.4073 20.3847 23.8333 19.0697C22.7788 18.6304 21.8791 17.8989 21.2454 16.9656C20.6117 16.0323 20.2717 14.9381 20.2674 13.8181Z" fill="white"/>
</svg>
