<svg width="24" height="24" viewBox="0 0 24 24" fill="none" xmlns="http://www.w3.org/2000/svg">
<path d="M23.3573 12.2469C23.3573 11.3342 23.2817 10.6681 23.1182 9.97745H12.4833V14.0969H18.7257C18.5999 15.1207 17.9203 16.6624 16.41 17.6984L16.3888 17.8363L19.7514 20.3891L19.9843 20.4119C22.1238 18.4755 23.3573 15.6263 23.3573 12.2469Z" fill="white"/>
<path d="M12.4832 23.1005C15.5415 23.1005 18.1089 22.1137 19.9842 20.4117L16.4099 17.6982C15.4534 18.3519 14.1697 18.8082 12.4832 18.8082C9.48787 18.8082 6.9456 16.8719 6.03935 14.1954L5.90652 14.2065L2.4101 16.8583L2.36438 16.9828C4.22703 20.609 8.05306 23.1005 12.4832 23.1005Z" fill="white"/>
<path d="M6.03941 14.1953C5.80029 13.5047 5.6619 12.7646 5.6619 11.9999C5.6619 11.2352 5.80029 10.4952 6.02683 9.80447L6.0205 9.65737L2.48027 6.96298L2.36444 7.01698C1.59675 8.52173 1.15625 10.2115 1.15625 11.9999C1.15625 13.7883 1.59675 15.478 2.36444 16.9828L6.03941 14.1953Z" fill="white"/>
<path d="M12.4832 5.19169C14.6102 5.19169 16.0449 6.09206 16.863 6.84448L20.0597 3.78566C18.0964 1.99726 15.5415 0.899536 12.4832 0.899536C8.05306 0.899536 4.22703 3.39096 2.36438 7.01709L6.02677 9.80458C6.9456 7.12814 9.48787 5.19169 12.4832 5.19169Z" fill="white"/>
</svg>
