<svg width="26" height="26" viewBox="0 0 26 26" fill="none" xmlns="http://www.w3.org/2000/svg">
<g clip-path="url(#clip0_12_275)">
<path d="M21.5746 14.1137C21.1543 13.5829 21.2745 13.3467 21.5746 12.8722C21.58 12.8668 25.0499 8.07194 25.4074 6.44585L25.4096 6.44477C25.5873 5.85219 25.4096 5.41669 24.5505 5.41669H21.7078C20.9842 5.41669 20.6505 5.79044 20.4718 6.2086C20.4718 6.2086 19.0244 9.6731 16.9769 11.9189C16.3161 12.5678 16.0106 12.7758 15.6498 12.7758C15.4722 12.7758 15.1959 12.5678 15.1959 11.9752V6.44477C15.1959 5.7341 14.9933 5.41669 14.3942 5.41669H9.92442C9.4705 5.41669 9.20075 5.74819 9.20075 6.05694C9.20075 6.73077 10.2245 6.88569 10.3307 8.78152V12.8949C10.3307 13.7963 10.1671 13.962 9.80417 13.962C8.83783 13.962 6.49242 10.4834 5.1025 6.50219C4.82192 5.72977 4.54783 5.41777 3.81875 5.41777H0.975C0.163583 5.41777 0 5.79152 0 6.20969C0 6.94852 0.966333 10.6221 4.49367 15.4754C6.8445 18.7883 10.1552 20.5834 13.1668 20.5834C14.9771 20.5834 15.1981 20.1847 15.1981 19.4989C15.1981 16.3334 15.0345 16.0344 15.9413 16.0344C16.3616 16.0344 17.0853 16.2424 18.7752 17.8404C20.7068 19.7351 21.0243 20.5834 22.1054 20.5834H24.9481C25.7584 20.5834 26.169 20.1847 25.9328 19.3982C25.3923 17.7439 21.7393 14.3412 21.5746 14.1137Z" fill="white"/>
</g>
<defs>
<clipPath id="clip0_12_275">
<rect width="26" height="26" fill="white"/>
</clipPath>
</defs>
</svg>
