<svg width="144" height="148" viewBox="0 0 144 148" fill="none" xmlns="http://www.w3.org/2000/svg">
<g clip-path="url(#clip0_201_1258)">
<path d="M72.5283 144.071C33.0556 144.071 1.05664 111.822 1.05664 72.0411C1.05664 32.2603 33.0556 0.0115967 72.5283 0.0115967C112.001 0.0115967 144 32.2603 144 72.0411C144 111.822 112.001 144.071 72.5283 144.071Z" fill="#DF7171"/>
<path d="M-7.62939e-05 77.5719C-0.0108643 87.8868 2.23123 98.0776 6.56708 107.421C10.9029 116.765 17.2262 125.032 25.0883 131.636C37.2199 141.859 52.8432 148.012 69.8934 148.012C108.495 148.012 139.788 116.475 139.788 77.5719C139.788 38.6699 108.495 7.13293 69.8934 7.13293C31.2919 7.13293 -7.62939e-05 38.6699 -7.62939e-05 77.5719Z" fill="#D94141"/>
<path d="M75.893 79.9047L77.6379 53.5784C77.9651 48.4491 78.1289 44.7667 78.1291 42.5312C78.1291 39.4903 77.3383 37.1178 75.7566 35.4137C74.9568 34.5636 73.9859 33.8957 72.9089 33.4549C71.8319 33.0142 70.6738 32.8106 69.5123 32.8581C66.3857 32.8581 64.2952 33.9481 63.241 36.1281C62.1866 38.3088 61.6594 41.4507 61.6594 45.554C61.662 48.0139 61.7892 50.4721 62.0407 52.919L64.3861 80.0149C64.6407 83.2395 65.1859 85.7127 66.0218 87.4347C66.3706 88.2386 66.9541 88.9164 67.6946 89.3778C68.4351 89.8393 69.2974 90.0625 70.1669 90.0178C72.1298 90.0178 73.4933 89.1842 74.2573 87.517C75.0205 85.8501 75.5657 83.3127 75.893 79.9047ZM69.8396 116.069C71.9762 116.1 74.0471 115.326 75.6473 113.898C77.3022 112.452 78.1295 110.427 78.1291 107.825C78.1325 106.744 77.9228 105.673 77.5123 104.675C77.1017 103.676 76.4983 102.769 75.7373 102.007C74.9763 101.246 74.0728 100.644 73.0791 100.237C72.0854 99.8294 71.0215 99.6253 69.9489 99.6359C68.8623 99.6167 67.7831 99.8185 66.7757 100.229C65.7683 100.64 64.8534 101.252 64.0859 102.027C63.3045 102.771 62.6854 103.671 62.2676 104.669C61.8499 105.667 61.6428 106.742 61.6594 107.825C61.6594 110.39 62.4775 112.406 64.1135 113.871C65.6769 115.309 67.7235 116.094 69.8396 116.069Z" fill="white"/>
</g>
<defs>
<clipPath id="clip0_201_1258">
<rect width="144" height="148" fill="white"/>
</clipPath>
</defs>
</svg>
