<svg width="88" height="31" viewBox="0 0 88 31" fill="none" xmlns="http://www.w3.org/2000/svg">
<g clip-path="url(#clip0_356_3798)">
<path d="M53.5 0C50.186 0.00383102 47.0089 1.28816 44.6655 3.57125C42.3222 5.85435 41.0039 8.94979 41 12.1786C41 22.5991 52.3636 30.4702 52.8475 30.8C53.0388 30.9302 53.2666 31 53.5 31C53.7334 31 53.9612 30.9302 54.1525 30.8C54.6364 30.4702 66 22.5991 66 12.1786C65.9961 8.94979 64.6778 5.85435 62.3345 3.57125C59.9911 1.28816 56.814 0.00383066 53.5 0ZM53.5008 7.7504C54.3998 7.7504 55.2787 8.01013 56.0262 8.49675C56.7736 8.98337 57.3563 9.67502 57.7003 10.4842C58.0443 11.2934 58.1343 12.1839 57.9589 13.0429C57.7836 13.902 57.3506 14.6911 56.715 15.3104C56.0793 15.9298 55.2693 16.3516 54.3876 16.5224C53.5059 16.6933 52.5919 16.6056 51.7614 16.2704C50.9308 15.9353 50.2209 15.3676 49.7214 14.6394C49.222 13.9111 48.9554 13.0549 48.9554 12.179C48.9554 11.5974 49.0729 11.0215 49.3013 10.4842C49.5298 9.94691 49.8646 9.4587 50.2867 9.04746C50.7088 8.63623 51.2099 8.31002 51.7613 8.08747C52.3128 7.86492 52.9039 7.75038 53.5008 7.7504Z" fill="#4941ED"/>
<path d="M7.79461 25.2362C9.3935 25.2362 10.5574 24.9715 11.2863 24.442C12.0152 23.9125 12.3797 23.1644 12.3797 22.1975C12.3797 21.622 12.2503 21.1271 11.9917 20.7127C11.7566 20.2983 11.4039 19.93 10.9336 19.6077C10.4869 19.2624 9.9343 18.9517 9.27593 18.6754C8.61757 18.3761 7.86514 18.0884 7.01867 17.8122C6.1722 17.5129 5.34924 17.1906 4.54979 16.8453C3.77386 16.477 3.08022 16.0281 2.46888 15.4986C1.88105 14.9692 1.39903 14.3361 1.02282 13.5994C0.670124 12.8628 0.493776 11.9765 0.493776 10.9406C0.493776 8.7767 1.25795 7.08471 2.78631 5.86464C4.31466 4.62155 6.39557 4 9.02905 4C10.5574 4 11.9094 4.17265 13.0851 4.51796C14.2842 4.84024 15.2248 5.19705 15.9066 5.5884L14.5311 9.1105C13.7317 8.67311 12.8499 8.33932 11.8859 8.10912C10.9454 7.87891 9.96957 7.76381 8.95851 7.76381C7.75934 7.76381 6.81881 8.00552 6.13693 8.48895C5.47856 8.97237 5.14938 9.65147 5.14938 10.5262C5.14938 11.0557 5.25519 11.5161 5.4668 11.9075C5.70194 12.2758 6.01936 12.6096 6.41909 12.9088C6.84232 13.2081 7.32434 13.4843 7.86515 13.7376C8.42946 13.9908 9.0408 14.2325 9.69917 14.4627C10.8513 14.8771 11.8741 15.3029 12.7676 15.7403C13.6846 16.1547 14.4488 16.6611 15.0602 17.2597C15.695 17.8352 16.177 18.5258 16.5062 19.3315C16.8354 20.1142 17 21.0695 17 22.1975C17 24.3614 16.2123 26.0419 14.6369 27.239C13.0851 28.413 10.8043 29 7.79461 29C6.78354 29 5.85477 28.9309 5.0083 28.7928C4.18534 28.6777 3.44467 28.5281 2.78631 28.3439C2.15145 28.1598 1.59889 27.9756 1.12863 27.7914C0.658368 27.5843 0.282158 27.4001 0 27.239L1.30498 23.6823C1.93983 24.0276 2.79806 24.3729 3.87967 24.7182C4.96127 25.0635 6.26625 25.2362 7.79461 25.2362Z" fill="#0B0A28"/>
<path d="M27.9449 4C31.5118 4 34.2402 4.65476 36.1299 5.96429C38.0433 7.27381 39 9.32143 39 12.1071C39 13.5595 38.7402 14.8095 38.2205 15.8571C37.7244 16.881 36.9921 17.7262 36.0236 18.3929C35.0551 19.0357 33.874 19.5119 32.4803 19.8214C31.0866 20.131 29.4921 20.2857 27.6969 20.2857H25.4646V29H21V4.60714C22.0394 4.36905 23.185 4.21429 24.437 4.14286C25.7126 4.04762 26.8819 4 27.9449 4ZM28.2638 7.89286C27.1299 7.89286 26.1969 7.92857 25.4646 8V16.4286H27.626C29.7756 16.4286 31.4291 16.131 32.5866 15.5357C33.7441 14.9167 34.3228 13.7619 34.3228 12.0714C34.3228 11.2619 34.1693 10.5833 33.8622 10.0357C33.5551 9.4881 33.1299 9.05952 32.5866 8.75C32.0433 8.44048 31.3937 8.22619 30.6378 8.10714C29.9055 7.96429 29.1142 7.89286 28.2638 7.89286Z" fill="#0B0A28"/>
<path d="M88 4V7.93218H80.2966V29H75.7034V7.93218H68V4H88Z" fill="#0B0A28"/>
</g>
<defs>
<clipPath id="clip0_356_3798">
<rect width="88" height="31" fill="white"/>
</clipPath>
</defs>
</svg>
