<svg width="64" height="64" viewBox="0 0 64 64" fill="none" xmlns="http://www.w3.org/2000/svg">
<g clip-path="url(#clip0_509_6139)">
<path d="M32 0C25.671 0 19.4841 1.87677 14.2218 5.39297C8.95939 8.90918 4.85787 13.9069 2.43587 19.7541C0.0138651 25.6014 -0.619842 32.0355 0.614885 38.2429C1.84961 44.4503 4.89732 50.1521 9.3726 54.6274C13.8479 59.1027 19.5497 62.1504 25.7571 63.3851C31.9645 64.6199 38.3986 63.9861 44.2459 61.5641C50.0931 59.1421 55.0908 55.0406 58.607 49.7782C62.1232 44.5159 64 38.329 64 32C63.9932 23.5152 60.6196 15.3798 54.6199 9.38007C48.6202 3.38038 40.4849 0.00677975 32 0ZM5.12001 32C5.11508 26.9009 6.562 21.9058 9.29157 17.5988C12.0211 13.2917 15.9205 9.85088 20.5337 7.67853C25.147 5.50618 30.2833 4.69215 35.3422 5.33162C40.401 5.97109 45.1733 8.03764 49.1008 11.2896L11.2896 49.1008C7.2999 44.2955 5.11726 38.2457 5.12001 32ZM32 58.88C25.7543 58.8828 19.7045 56.7001 14.8992 52.7104L52.7104 14.8992C55.9624 18.8268 58.0289 23.599 58.6684 28.6578C59.3079 33.7167 58.4938 38.853 56.3215 43.4663C54.1491 48.0795 50.7083 51.9789 46.4013 54.7084C42.0942 57.438 37.0991 58.8849 32 58.88Z" fill="#B5B4BF"/>
</g>
<defs>
<clipPath id="clip0_509_6139">
<rect width="64" height="64" fill="white"/>
</clipPath>
</defs>
</svg>
