<svg width="100" height="100" viewBox="0 0 100 100" fill="none" xmlns="http://www.w3.org/2000/svg">
<g clip-path="url(#clip0_591_5900)">
<path d="M0.0215149 50.0934C0.0137939 57.4152 1.61772 64.6489 4.71946 71.2813C7.8212 77.9137 12.3447 83.7821 17.969 88.47C26.6476 95.7265 37.824 100.094 50.0212 100.094C77.6356 100.094 100.021 77.7078 100.021 50.0934C100.021 22.4795 77.6356 0.0936279 50.0212 0.0936279C22.4068 0.0936279 0.0215149 22.4795 0.0215149 50.0934Z" fill="#CAD3FF"/>
<path d="M68.571 39.2019C68.571 34.2213 66.5767 29.4447 63.0269 25.9229C59.4771 22.4011 54.6626 20.4225 49.6424 20.4225C44.6223 20.4225 39.8077 22.4011 36.2579 25.9229C32.7081 29.4447 30.7139 34.2213 30.7139 39.2019C30.7139 40.198 31.1127 41.1533 31.8227 41.8577C32.5326 42.5621 33.4955 42.9578 34.4996 42.9578C35.5036 42.9578 36.4665 42.5621 37.1765 41.8577C37.8864 41.1533 38.2853 40.198 38.2853 39.2019C38.2853 36.9734 38.9514 34.7949 40.1993 32.9419C41.4473 31.089 43.221 29.6448 45.2962 28.792C47.3715 27.9392 49.655 27.716 51.8581 28.1508C54.0612 28.5856 56.0848 29.6587 57.6731 31.2345C59.2615 32.8103 60.3431 34.818 60.7813 37.0037C61.2196 39.1894 60.9946 41.4549 60.135 43.5138C59.2755 45.5727 57.8198 47.3325 55.9521 48.5706C54.0844 49.8087 51.8887 50.4695 49.6424 50.4695C48.6384 50.4695 47.6755 50.8652 46.9655 51.5696C46.2556 52.2739 45.8567 53.2292 45.8567 54.2254V61.7371C45.8567 62.7332 46.2556 63.6885 46.9655 64.3929C47.6755 65.0973 48.6384 65.493 49.6424 65.493C50.6465 65.493 51.6094 65.0973 52.3193 64.3929C53.0293 63.6885 53.4281 62.7332 53.4281 61.7371V57.6056C57.7036 56.7398 61.5462 54.435 64.3056 51.0813C67.0651 47.7277 68.5719 43.5311 68.571 39.2019Z" fill="white"/>
<path d="M49.2856 80.2817C52.4415 80.2817 54.9999 77.7594 54.9999 74.6479C54.9999 71.5364 52.4415 69.0141 49.2856 69.0141C46.1297 69.0141 43.5713 71.5364 43.5713 74.6479C43.5713 77.7594 46.1297 80.2817 49.2856 80.2817Z" fill="white"/>
</g>
<defs>
<clipPath id="clip0_591_5900">
<rect width="100" height="100" fill="white"/>
</clipPath>
</defs>
</svg>
