<svg width="19" height="24" viewBox="0 0 19 24" fill="none" xmlns="http://www.w3.org/2000/svg">
<path d="M9.94444 0C5.00456 0 1 4.28406 1 9.56871C1 12.6326 2.37607 14.7211 4.44017 17.1116L9.94444 23L15.4487 17.1116C17.1688 15.0891 18.8889 12.6326 18.8889 9.56871C18.8889 4.28406 14.8843 0 9.94444 0Z" fill="#4941ED"/>
<path d="M9.90042 6.03888C10.8954 6.03888 11.6586 6.22969 12.1902 6.61132C12.7286 6.98614 12.9978 7.54836 12.9978 8.29799C12.9978 8.70688 12.9228 9.05784 12.7729 9.35088C12.6298 9.6371 12.4185 9.87221 12.1391 10.0562C11.8665 10.2334 11.5326 10.3629 11.1373 10.4447C10.742 10.5264 10.2957 10.5673 9.7982 10.5673H9.01109V13.1944H8.01953V6.21266C8.29894 6.14451 8.60901 6.10021 8.94975 6.07977C9.29731 6.05251 9.6142 6.03888 9.90042 6.03888ZM9.9822 6.90777C9.55968 6.90777 9.23598 6.91799 9.01109 6.93844V9.71888H9.75731C10.098 9.71888 10.4047 9.69844 10.6773 9.65755C10.9499 9.60984 11.1782 9.53488 11.3622 9.43266C11.553 9.32362 11.6995 9.1771 11.8018 8.9931C11.904 8.8091 11.9551 8.57399 11.9551 8.28777C11.9551 8.01518 11.9006 7.79029 11.7915 7.6131C11.6893 7.43592 11.5462 7.29621 11.3622 7.19399C11.185 7.08495 10.9772 7.00999 10.7386 6.9691C10.5001 6.92821 10.248 6.90777 9.9822 6.90777Z" fill="white"/>
</svg>
