<svg width="20" height="34" viewBox="0 0 20 34" fill="none" xmlns="http://www.w3.org/2000/svg">
<path fill-rule="evenodd" clip-rule="evenodd" d="M16.0999 5.20247C16.0999 4.4845 15.5179 3.90247 14.7999 3.90247H5.1999C4.48193 3.90247 3.8999 4.4845 3.8999 5.20247L3.8999 28.7975C3.8999 29.5155 4.48193 30.0975 5.1999 30.0975H14.7999C15.5179 30.0975 16.0999 29.5155 16.0999 28.7975V5.20247ZM3.8999 1.90247C2.79533 1.90247 1.8999 2.7979 1.8999 3.90246V30.0975C1.8999 31.2021 2.79533 32.0975 3.8999 32.0975H16.0999C17.2045 32.0975 18.0999 31.2021 18.0999 30.0975V3.90247C18.0999 2.7979 17.2045 1.90247 16.0999 1.90247H3.8999Z" fill="#B5B4BF"/>
<path d="M6.29253 13.8165C6.29066 13.8632 6.29784 13.9098 6.31363 13.9534C6.32942 13.997 6.35349 14.0368 6.38435 14.0703C6.41522 14.1037 6.45223 14.1301 6.49311 14.1479C6.53399 14.1657 6.57787 14.1744 6.62206 14.1736H7.75013C7.93882 14.1736 8.08923 14.0102 8.11385 13.8121C8.23691 12.8637 8.85222 12.1726 9.94884 12.1726C10.8868 12.1726 11.7455 12.6685 11.7455 13.8613C11.7455 14.7793 11.2342 15.2015 10.426 15.8434C9.50582 16.5504 8.77701 17.3759 8.82897 18.7161L8.83308 19.0298C8.83451 19.1247 8.87116 19.2152 8.93511 19.2817C8.99906 19.3482 9.08519 19.3855 9.17492 19.3855H10.2838C10.3745 19.3855 10.4615 19.3474 10.5256 19.2796C10.5897 19.2119 10.6257 19.1199 10.6257 19.0241V18.8723C10.6257 17.8342 10.999 17.532 12.0067 16.7239C12.8394 16.0545 13.7077 15.3114 13.7077 13.7514C13.7077 11.5669 11.963 10.5115 10.0528 10.5115C8.32032 10.5115 6.42243 11.3645 6.29253 13.8165ZM8.4215 22.1483C8.4215 22.9189 9.00263 23.4885 9.80253 23.4885C10.6353 23.4885 11.2082 22.9189 11.2082 22.1483C11.2082 21.3503 10.6339 20.7893 9.80117 20.7893C9.00263 20.7893 8.4215 21.3503 8.4215 22.1483Z" fill="#B5B4BF"/>
</svg>
