<svg width="20" height="34" viewBox="0 0 20 34" fill="none" xmlns="http://www.w3.org/2000/svg">
<path fill-rule="evenodd" clip-rule="evenodd" d="M16.0999 5.20247C16.0999 4.4845 15.5179 3.90247 14.7999 3.90247H5.1999C4.48193 3.90247 3.8999 4.4845 3.8999 5.20247L3.8999 28.7975C3.8999 29.5155 4.48193 30.0975 5.1999 30.0975H14.7999C15.5179 30.0975 16.0999 29.5155 16.0999 28.7975V5.20247ZM3.8999 1.90247C2.79533 1.90247 1.8999 2.7979 1.8999 3.90246V30.0975C1.8999 31.2021 2.79533 32.0975 3.8999 32.0975H16.0999C17.2045 32.0975 18.0999 31.2021 18.0999 30.0975V3.90247C18.0999 2.7979 17.2045 1.90247 16.0999 1.90247H3.8999Z" fill="#4941ED"/>
</svg>
