<svg width="20" height="34" viewBox="0 0 20 34" fill="none" xmlns="http://www.w3.org/2000/svg">
<path d="M5.91427 16.1953L4.74292 8.64551H15.6983L14.2388 16.1953H5.91427Z" fill="#0B0A28"/>
<path d="M16.2114 8.5862L16.1476 7.57149C16.0891 6.65719 15.802 5.76932 15.2863 5.01357C14.3399 3.6342 12.9575 3.07927 10.9211 3H9.31014C7.2791 3.07927 5.8914 3.6342 4.95032 5.01357C4.43459 5.76932 4.14748 6.65719 4.08899 7.57149L4.02519 8.5862C3.98266 9.24154 3.99329 9.90216 4.06241 10.5575L4.07836 10.7055L4.07836 27.2104C4.12089 28.1723 4.29635 28.6743 4.60473 29.4671C5.17363 30.7777 6.35929 31.3644 9.55471 31.3802H10.6872C13.8826 31.3644 15.0683 30.7725 15.6372 29.4671C15.9456 28.6743 16.1157 28.1723 16.1636 27.2104V10.7108L16.1795 10.5628C16.238 9.90744 16.2486 9.24682 16.2114 8.5862ZM15.0151 11.4559L14.308 15.0497C14.2601 15.2928 14.2176 15.5359 14.1804 15.779C11.0487 15.1131 9.16127 15.0444 5.99242 15.779C5.95521 15.5359 5.91267 15.2928 5.86482 15.0497L5.15768 11.4559C5.00349 10.679 5.42352 9.90216 6.16256 9.61148C7.14086 9.22568 8.27335 9.05656 9.78866 9.01428H10.3735C11.8888 9.05656 13.0266 9.23097 13.9996 9.61677C14.7493 9.90216 15.1693 10.679 15.0151 11.4559Z" fill="#4941ED"/>
<path d="M14.0756 27.903C14.2351 27.4907 14.5009 26.9962 14.5488 26.0532C14.5488 25.7837 14.5381 25.5142 14.5009 25.2341H5.51544C5.48885 25.5089 5.4729 25.7837 5.4729 26.0532C5.61682 27.2731 5.79191 27.496 5.95673 27.903C6.17472 28.3205 6.5469 28.6323 6.99352 28.775C7.70066 29.0022 8.35995 29.0868 9.27445 29.1502C9.49244 29.1661 9.71575 29.1714 9.93905 29.1714H10.0879C10.3165 29.1714 10.5399 29.1661 10.7685 29.1502C11.6777 29.0868 12.337 29.0022 13.0388 28.775C13.4854 28.627 13.8629 28.3205 14.0756 27.903Z" fill="#0B0A28"/>
<path d="M5.78269 23.0288C5.77206 23.5151 5.76142 24.0171 5.75079 24.572C5.75079 24.6143 5.74016 24.6566 5.71889 24.6936C5.6285 24.8627 5.5009 24.9209 5.29886 24.8839C5.00643 24.794 4.85756 24.5245 4.84692 24.0488L4.55981 10.7677C4.55981 10.7572 4.55981 10.7466 4.55981 10.736C4.56513 10.7413 4.57045 10.7519 4.57576 10.7624L4.72995 11.0584C4.76185 11.1218 4.78844 11.1905 4.80439 11.2645L5.24037 13.5476C5.54875 15.1648 5.71357 16.597 5.73484 17.9394C5.84649 19.9953 5.81991 21.4011 5.78269 23.0288Z" fill="#0B0A28"/>
<path d="M14.3305 23.1377C14.3412 23.5955 14.3518 24.0683 14.3624 24.5909C14.3624 24.6307 14.3731 24.6705 14.3943 24.7053C14.4847 24.8646 14.6123 24.9193 14.8144 24.8845C15.1068 24.7999 15.2557 24.5461 15.2663 24.0982L15.5534 11.5919C15.5534 11.5819 15.5534 11.572 15.5534 11.562C15.5481 11.567 15.5428 11.5769 15.5375 11.5869L15.3833 11.8656C15.3514 11.9253 15.3248 11.99 15.3088 12.0597L14.8675 14.2195C14.5592 15.7424 14.3943 17.0911 14.3731 18.3551C14.2614 20.2811 14.2933 21.6049 14.3305 23.1377Z" fill="#0B0A28"/>
<path d="M4.17007 12.4745L4.16137 13.2005C4.16137 13.2782 4.10921 13.3474 4.03096 13.3733L2.15296 13.9956C2.0921 14.0128 2.02254 13.9783 2.00515 13.9178C1.97907 13.8227 1.95299 13.719 1.94429 13.5894C1.9356 13.5029 1.94429 13.4165 1.94429 13.3474C1.96168 13.1659 2.03124 12.993 2.14427 12.8548C2.2486 12.7338 2.37902 12.6128 2.57899 12.5177C2.83112 12.3967 3.17021 12.3276 3.50929 12.3189C3.66579 12.3103 3.86576 12.3189 4.02226 12.3276C4.10921 12.3276 4.17007 12.3967 4.17007 12.4745Z" fill="#4941ED"/>
<path d="M15.9795 12.4792L15.9882 13.2029C15.9882 13.2805 16.0402 13.3494 16.1182 13.3752L17.9904 13.9956C18.0511 14.0128 18.1204 13.9783 18.1377 13.918C18.1637 13.8233 18.1897 13.7199 18.1984 13.5906C18.2071 13.5045 18.1984 13.4183 18.1984 13.3494C18.1811 13.1685 18.1117 12.9961 17.9991 12.8583C17.895 12.7377 17.765 12.6171 17.5657 12.5223C17.3143 12.4017 16.9763 12.3327 16.6382 12.3241C16.4822 12.3155 16.2829 12.3241 16.1268 12.3327C16.0402 12.3327 15.9795 12.3931 15.9795 12.4792Z" fill="#4941ED"/>
<path d="M7.09988 3.78296C5.97803 4.46472 5.34532 5.26275 5.021 6.53114V5.89694C5.021 5.52171 5.1486 5.16233 5.39318 4.87695C5.87169 4.32731 6.33957 3.96793 7.09988 3.78296Z" fill="url(#paint0_linear_264_2915)"/>
<path d="M7.09988 3.78296C5.97803 4.46472 5.34532 5.26275 5.021 6.53114V5.89694C5.021 5.52171 5.1486 5.16233 5.39318 4.87695C5.87169 4.32731 6.33957 3.96793 7.09988 3.78296Z" fill="url(#paint1_linear_264_2915)"/>
<path d="M5.02661 6.52591V5.897C5.02661 5.52177 5.15422 5.16239 5.39879 4.87701C5.87199 4.32737 6.33987 3.96799 7.10018 3.78302C5.97833 4.46478 5.34562 5.25752 5.02661 6.52591Z" fill="white"/>
<path d="M13.2725 3.78296C14.3943 4.46472 15.027 5.26275 15.3514 6.53114V5.89694C15.3514 5.52171 15.2237 5.16233 14.9792 4.87695C14.506 4.32731 14.0328 3.96793 13.2725 3.78296Z" fill="url(#paint2_linear_264_2915)"/>
<path d="M13.2725 3.78296C14.3943 4.46472 15.027 5.26275 15.3514 6.53114V5.89694C15.3514 5.52171 15.2237 5.16233 14.9792 4.87695C14.506 4.32731 14.0328 3.96793 13.2725 3.78296Z" fill="url(#paint3_linear_264_2915)"/>
<path d="M15.3352 6.5312V5.90229C15.3352 5.52706 15.2076 5.16768 14.9631 4.88229C14.4899 4.32737 14.0167 3.96799 13.2563 3.78302C14.3782 4.47006 15.0109 5.26281 15.3352 6.5312Z" fill="white"/>
<path d="M6.88339 30.91C5.74026 30.6141 5.16073 30.0803 4.80982 29.277C4.71943 29.0444 4.63968 28.833 4.57056 28.6322L4.67689 28.6639C5.03312 28.7749 5.32023 29.0339 5.4691 29.3721C5.70836 29.9217 5.95826 30.1596 6.68135 30.5295C6.8249 30.6035 6.90465 30.7568 6.88339 30.91Z" fill="#D8394C"/>
<path d="M13.4426 30.9154C14.5857 30.6194 15.1653 30.0857 15.5162 29.2823C15.6066 29.0498 15.6863 28.8384 15.7554 28.6376L15.6491 28.6693C15.2929 28.7803 15.0058 29.0392 14.8569 29.3775C14.6176 29.9271 14.3677 30.1649 13.6447 30.5349C13.5011 30.6089 13.4213 30.7621 13.4426 30.9154Z" fill="#D8394C"/>
<defs>
<linearGradient id="paint0_linear_264_2915" x1="5.02409" y1="5.15422" x2="7.10237" y2="5.15422" gradientUnits="userSpaceOnUse">
<stop offset="0.1548" stop-color="#A1A1A1"/>
<stop offset="0.9205" stop-color="white"/>
</linearGradient>
<linearGradient id="paint1_linear_264_2915" x1="5.02409" y1="5.15422" x2="7.10237" y2="5.15422" gradientUnits="userSpaceOnUse">
<stop stop-color="#333333"/>
<stop offset="0.1883"/>
<stop offset="0.3849" stop-color="#333333"/>
<stop offset="0.5983"/>
<stop offset="0.8033" stop-color="#333333"/>
<stop offset="1"/>
</linearGradient>
<linearGradient id="paint2_linear_264_2915" x1="15.3519" y1="5.15422" x2="13.2736" y2="5.15422" gradientUnits="userSpaceOnUse">
<stop offset="0.1548" stop-color="#A1A1A1"/>
<stop offset="0.9205" stop-color="white"/>
</linearGradient>
<linearGradient id="paint3_linear_264_2915" x1="15.3519" y1="5.15422" x2="13.2736" y2="5.15422" gradientUnits="userSpaceOnUse">
<stop stop-color="#333333"/>
<stop offset="0.1883"/>
<stop offset="0.3849" stop-color="#333333"/>
<stop offset="0.5983"/>
<stop offset="0.8033" stop-color="#333333"/>
<stop offset="1"/>
</linearGradient>
</defs>
</svg>
