<svg width="16" height="16" viewBox="0 0 16 16" fill="none" xmlns="http://www.w3.org/2000/svg">
<g clip-path="url(#clip0_67_4216)">
<path d="M15.5454 13.1478L15.839 12.9899L15.5455 13.1478C15.6304 13.3057 15.6718 13.4817 15.6662 13.6588C15.6605 13.8359 15.6081 14.0092 15.5132 14.1619C15.4182 14.3147 15.2837 14.4421 15.1219 14.5309C14.96 14.6197 14.7767 14.6667 14.5898 14.6667H14.5897H1.41026H1.4102C1.22329 14.6667 1.03999 14.6197 0.878111 14.5309C0.716282 14.4421 0.581782 14.3147 0.48682 14.1619C0.391899 14.0092 0.339453 13.8359 0.333837 13.6588C0.328222 13.4817 0.369591 13.3057 0.454532 13.1478L0.454545 13.1478L7.04495 0.893678C7.1351 0.726167 7.27126 0.584669 7.4397 0.485446C7.6082 0.386184 7.80212 0.333333 8.00035 0.333333C8.19859 0.333333 8.3925 0.386184 8.56101 0.485446C8.72942 0.584651 8.86556 0.726115 8.9557 0.893587C8.95572 0.893617 8.95574 0.893648 8.95575 0.893678L15.5454 13.1478ZM8.01447 13.2772H8.01551H8.03525V12.9439C8.17383 12.9417 8.31057 12.9126 8.43742 12.8582C8.56427 12.8038 8.67868 12.7253 8.77392 12.6273C8.86916 12.5292 8.94331 12.4136 8.99201 12.2873C9.04071 12.1609 9.06299 12.0263 9.05752 11.8915L9.39058 11.878C9.39058 11.878 9.39058 11.878 9.39058 11.878C9.37606 11.5188 9.21943 11.1808 8.95635 10.9342C8.69354 10.6879 8.34479 10.5515 7.98347 10.551H7.98308H7.96334V10.551L7.9574 10.5511C7.7761 10.5543 7.59704 10.5927 7.43063 10.6642C7.2642 10.7357 7.11349 10.8391 6.98755 10.9687C6.8616 11.0983 6.76295 11.2515 6.69784 11.4197C6.63273 11.5878 6.60259 11.7672 6.60939 11.9473L6.6094 11.9477C6.62342 12.307 6.77953 12.6452 7.04221 12.8923C7.30463 13.1391 7.65313 13.2761 8.01447 13.2772ZM7.26893 4.31794C7.07327 4.50847 6.96166 4.7688 6.96166 5.04219V9.16124C6.96166 9.43462 7.07327 9.69496 7.26893 9.88549C7.4643 10.0757 7.72743 10.1811 8 10.1811C8.27257 10.1811 8.5357 10.0757 8.73107 9.88549C8.92673 9.69496 9.03835 9.43462 9.03835 9.16124V5.04219C9.03835 4.7688 8.92673 4.50847 8.73107 4.31794C8.5357 4.1277 8.27257 4.02234 8 4.02234C7.72743 4.02234 7.4643 4.1277 7.26893 4.31794Z" fill="#0B0A28" stroke="#0B0A28" stroke-width="0.666667"/>
</g>
<defs>
<clipPath id="clip0_67_4216">
<rect width="16" height="16" fill="white"/>
</clipPath>
</defs>
</svg>
