<svg width="16" height="16" viewBox="0 0 16 16" fill="none" xmlns="http://www.w3.org/2000/svg">
<path fill-rule="evenodd" clip-rule="evenodd" d="M11.0824 15.3726C10.1203 15.7909 9.09281 16 8 16C6.90719 16 5.87712 15.7909 4.9098 15.3726C3.94771 14.9542 3.09804 14.3765 2.36078 13.6392C1.62353 12.902 1.04575 12.0523 0.627451 11.0902C0.20915 10.1229 0 9.09281 0 8C0 6.90719 0.20915 5.87974 0.627451 4.91765C1.04575 3.95033 1.62092 3.09804 2.35294 2.36078C3.0902 1.62353 3.93987 1.04575 4.90196 0.627451C5.86928 0.20915 6.89935 0 7.99216 0C9.08497 0 10.115 0.20915 11.0824 0.627451C12.0497 1.04575 12.902 1.62353 13.6392 2.36078C14.3765 3.09804 14.9542 3.95033 15.3726 4.91765C15.7909 5.87974 16 6.90719 16 8C16 9.09281 15.7909 10.1229 15.3726 11.0902C14.9542 12.0523 14.3765 12.902 13.6392 13.6392C12.902 14.3765 12.0497 14.9542 11.0824 15.3726ZM7.81173 11.1803C7.65487 11.4208 7.4431 11.5411 7.17643 11.5411C7.04572 11.5411 6.92545 11.5123 6.81565 11.4548C6.71107 11.3973 6.60911 11.3058 6.50977 11.1803L4.59604 8.82737C4.47578 8.66528 4.41565 8.50319 4.41565 8.34109C4.41565 8.16854 4.47317 8.02214 4.5882 7.90188C4.70846 7.77639 4.85225 7.71364 5.01957 7.71364C5.12938 7.71364 5.22872 7.73717 5.31761 7.78423C5.41173 7.82606 5.50585 7.90972 5.59996 8.03521L7.14506 10.0352L10.4 4.81168C10.5464 4.57639 10.7294 4.45874 10.949 4.45874C11.1111 4.45874 11.2575 4.51103 11.3882 4.6156C11.5189 4.72018 11.5843 4.85874 11.5843 5.03129C11.5843 5.12018 11.5634 5.20907 11.5215 5.29796C11.4849 5.38162 11.4431 5.46005 11.396 5.53325L7.81173 11.1803Z" fill="#0B0A28"/>
</svg>
