<svg width="24" height="24" viewBox="0 0 24 24" fill="none" xmlns="http://www.w3.org/2000/svg">
<path fill-rule="evenodd" clip-rule="evenodd" d="M15.0824 19.3726C14.1203 19.7909 13.0928 20 12 20C10.9072 20 9.87712 19.7909 8.9098 19.3726C7.94771 18.9542 7.09804 18.3765 6.36078 17.6392C5.62353 16.902 5.04575 16.0523 4.62745 15.0902C4.20915 14.1229 4 13.0928 4 12C4 10.9072 4.20915 9.87974 4.62745 8.91765C5.04575 7.95033 5.62091 7.09804 6.35294 6.36078C7.0902 5.62353 7.93987 5.04575 8.90196 4.62745C9.86928 4.20915 10.8993 4 11.9922 4C13.085 4 14.115 4.20915 15.0824 4.62745C16.0497 5.04575 16.902 5.62353 17.6392 6.36078C18.3765 7.09804 18.9542 7.95033 19.3726 8.91765C19.7909 9.87974 20 10.9072 20 12C20 13.0928 19.7909 14.1229 19.3726 15.0902C18.9542 16.0523 18.3765 16.902 17.6392 17.6392C16.902 18.3765 16.0497 18.9542 15.0824 19.3726ZM11.8117 15.1803C11.6549 15.4208 11.4431 15.5411 11.1764 15.5411C11.0457 15.5411 10.9255 15.5123 10.8156 15.4548C10.7111 15.3973 10.6091 15.3058 10.5098 15.1803L8.59604 12.8274C8.47578 12.6653 8.41565 12.5032 8.41565 12.3411C8.41565 12.1685 8.47317 12.0221 8.5882 11.9019C8.70846 11.7764 8.85225 11.7136 9.01957 11.7136C9.12938 11.7136 9.22872 11.7372 9.31761 11.7842C9.41173 11.8261 9.50585 11.9097 9.59996 12.0352L11.1451 14.0352L14.4 8.81168C14.5464 8.57639 14.7294 8.45874 14.949 8.45874C15.1111 8.45874 15.2575 8.51103 15.3882 8.6156C15.5189 8.72018 15.5843 8.85874 15.5843 9.03129C15.5843 9.12018 15.5634 9.20907 15.5215 9.29796C15.4849 9.38162 15.4431 9.46005 15.396 9.53325L11.8117 15.1803Z" fill="#4941ED"/>
</svg>
