<svg width="29" height="28" viewBox="0 0 29 28" fill="none" xmlns="http://www.w3.org/2000/svg">
<path fill-rule="evenodd" clip-rule="evenodd" d="M3.2915 10.1664C3.2915 6.67601 6.0279 3.79169 9.4698 3.79169C11.1189 3.79169 12.6937 4.47134 13.8497 5.67015L14.6665 6.51724L15.4833 5.67015C16.6393 4.47133 18.2141 3.79169 19.8632 3.79169C23.3051 3.79169 26.0415 6.67601 26.0415 10.1664C26.0415 11.847 25.398 13.4649 24.2431 14.6627L15.2964 23.9407C15.1315 24.1117 14.9041 24.2084 14.6665 24.2084C14.4289 24.2084 14.2016 24.1117 14.0366 23.9407L5.08994 14.6627C3.93498 13.4649 3.2915 11.847 3.2915 10.1664Z" fill="#4941ED"/>
</svg>
