<svg width="29" height="28" viewBox="0 0 29 28" fill="none" xmlns="http://www.w3.org/2000/svg">
<path fill-rule="evenodd" clip-rule="evenodd" d="M9.4698 5.54169C7.05384 5.54169 5.0415 7.58198 5.0415 10.1664C5.0415 11.403 5.5155 12.5829 6.34967 13.4479L14.6665 22.0728L22.9833 13.4479C23.8175 12.5829 24.2915 11.403 24.2915 10.1664C24.2915 7.58198 22.2792 5.54169 19.8632 5.54169C18.6992 5.54169 17.5762 6.0209 16.7431 6.88489L15.2964 8.38517C15.1315 8.55619 14.9041 8.6528 14.6665 8.6528C14.4289 8.6528 14.2016 8.55619 14.0366 8.38517L12.5899 6.88489C11.7568 6.02091 10.6338 5.54169 9.4698 5.54169ZM3.2915 10.1664C3.2915 6.67601 6.0279 3.79169 9.4698 3.79169C11.1189 3.79169 12.6937 4.47134 13.8497 5.67015L14.6665 6.51724L15.4833 5.67015L16.0956 6.26058L15.4833 5.67015C16.6393 4.47133 18.2141 3.79169 19.8632 3.79169C23.3051 3.79169 26.0415 6.67601 26.0415 10.1664C26.0415 11.847 25.398 13.4649 24.2431 14.6627L15.2964 23.9407C15.1315 24.1117 14.9041 24.2084 14.6665 24.2084C14.4289 24.2084 14.2016 24.1117 14.0366 23.9407L5.08994 14.6627C3.93498 13.4649 3.2915 11.847 3.2915 10.1664Z" fill="#B5B4BF"/>
</svg>
