<svg width="24" height="24" viewBox="0 0 24 24" fill="none" xmlns="http://www.w3.org/2000/svg">
<path fill-rule="evenodd" clip-rule="evenodd" d="M11.6996 2.46714C11.9137 2.35899 12.1666 2.35724 12.3822 2.46244L22.1503 7.22852C22.7148 7.50398 22.7204 8.30137 22.1597 8.58459L12.3007 13.5649C12.0866 13.6731 11.8337 13.6748 11.6181 13.5696L1.85005 8.80354C1.28549 8.52807 1.27992 7.73068 1.84058 7.44747L11.6996 2.46714ZM11.9284 3.80953C12.0049 3.77091 12.0952 3.77028 12.1722 3.80785L20.3987 7.82179C20.4794 7.86114 20.4802 7.97506 20.4001 8.01552L12.0719 12.2225C11.9955 12.2612 11.9052 12.2618 11.8282 12.2242L3.60158 8.21027C3.52093 8.17091 3.52013 8.057 3.60023 8.01654L11.9284 3.80953ZM1.50038 11.7733C1.66268 11.4527 2.05595 11.3235 2.37877 11.4847L11.8524 16.2153C11.9449 16.2615 12.0538 16.2615 12.1463 16.2153L21.6199 11.4847C21.9427 11.3235 22.336 11.4527 22.4983 11.7733C22.6606 12.0939 22.5305 12.4845 22.2077 12.6457L12.3422 17.572C12.1265 17.6797 11.8722 17.6797 11.6565 17.572L1.79101 12.6457C1.46819 12.4845 1.33807 12.0939 1.50038 11.7733ZM2.38702 15.4472C2.0642 15.286 1.67094 15.4152 1.50863 15.7359C1.34633 16.0565 1.47645 16.4471 1.79926 16.6083L11.6647 21.5346C11.8805 21.6423 12.1348 21.6423 12.3505 21.5346L22.2159 16.6083C22.5388 16.4471 22.6689 16.0565 22.5066 15.7359C22.3443 15.4152 21.951 15.286 21.6282 15.4472L12.1545 20.1779C12.0621 20.224 11.9531 20.224 11.8607 20.1779L2.38702 15.4472Z" fill="black"/>
</svg>
