<svg width="28" height="28" viewBox="0 0 28 28" fill="none" xmlns="http://www.w3.org/2000/svg">
<path d="M4.0835 4.08331V3.33331C3.66928 3.33331 3.3335 3.6691 3.3335 4.08331H4.0835ZM12.2502 4.08331H13.0002C13.0002 3.6691 12.6644 3.33331 12.2502 3.33331V4.08331ZM12.2502 12.25V13C12.6644 13 13.0002 12.6642 13.0002 12.25H12.2502ZM4.0835 12.25H3.3335C3.3335 12.6642 3.66928 13 4.0835 13V12.25ZM4.0835 15.75V15C3.66928 15 3.3335 15.3358 3.3335 15.75H4.0835ZM12.2502 15.75H13.0002C13.0002 15.3358 12.6644 15 12.2502 15V15.75ZM12.2502 23.9166V24.6666C12.6644 24.6666 13.0002 24.3309 13.0002 23.9166H12.2502ZM4.0835 23.9166H3.3335C3.3335 24.3309 3.66928 24.6666 4.0835 24.6666V23.9166ZM15.7502 4.08331V3.33331C15.3359 3.33331 15.0002 3.6691 15.0002 4.08331H15.7502ZM23.9168 4.08331H24.6668C24.6668 3.6691 24.331 3.33331 23.9168 3.33331V4.08331ZM23.9168 12.25V13C24.331 13 24.6668 12.6642 24.6668 12.25H23.9168ZM15.7502 12.25H15.0002C15.0002 12.6642 15.3359 13 15.7502 13V12.25ZM15.7502 15.75V15C15.3359 15 15.0002 15.3358 15.0002 15.75H15.7502ZM23.9168 15.75H24.6668C24.6668 15.3358 24.331 15 23.9168 15V15.75ZM23.9168 23.9166V24.6666C24.331 24.6666 24.6668 24.3309 24.6668 23.9166H23.9168ZM15.7502 23.9166H15.0002C15.0002 24.3309 15.3359 24.6666 15.7502 24.6666V23.9166ZM4.0835 4.83331H12.2502V3.33331H4.0835V4.83331ZM11.5002 4.08331V12.25H13.0002V4.08331H11.5002ZM12.2502 11.5H4.0835V13H12.2502V11.5ZM4.8335 12.25V4.08331H3.3335V12.25H4.8335ZM4.0835 16.5H12.2502V15H4.0835V16.5ZM11.5002 15.75V23.9166H13.0002V15.75H11.5002ZM12.2502 23.1666H4.0835V24.6666H12.2502V23.1666ZM4.8335 23.9166V15.75H3.3335V23.9166H4.8335ZM15.7502 4.83331H23.9168V3.33331H15.7502V4.83331ZM23.1668 4.08331V12.25H24.6668V4.08331H23.1668ZM23.9168 11.5H15.7502V13H23.9168V11.5ZM16.5002 12.25V4.08331H15.0002V12.25H16.5002ZM15.7502 16.5H23.9168V15H15.7502V16.5ZM23.1668 15.75V23.9166H24.6668V15.75H23.1668ZM23.9168 23.1666H15.7502V24.6666H23.9168V23.1666ZM16.5002 23.9166V15.75H15.0002V23.9166H16.5002Z" fill="#B5B4BF"/>
</svg>
