<svg width="28" height="28" viewBox="0 0 28 28" fill="none" xmlns="http://www.w3.org/2000/svg">
<path fill-rule="evenodd" clip-rule="evenodd" d="M3.2085 4.08331C3.2085 3.60006 3.60025 3.20831 4.0835 3.20831H12.2502C12.7334 3.20831 13.1252 3.60006 13.1252 4.08331V12.25C13.1252 12.7332 12.7334 13.125 12.2502 13.125H4.0835C3.60025 13.125 3.2085 12.7332 3.2085 12.25V4.08331ZM14.8752 4.08331C14.8752 3.60006 15.2669 3.20831 15.7502 3.20831H23.9168C24.4001 3.20831 24.7918 3.60006 24.7918 4.08331V12.25C24.7918 12.7332 24.4001 13.125 23.9168 13.125H15.7502C15.2669 13.125 14.8752 12.7332 14.8752 12.25V4.08331ZM3.2085 15.75C3.2085 15.2667 3.60025 14.875 4.0835 14.875H12.2502C12.7334 14.875 13.1252 15.2667 13.1252 15.75V23.9166C13.1252 24.3999 12.7334 24.7916 12.2502 24.7916H4.0835C3.60025 24.7916 3.2085 24.3999 3.2085 23.9166V15.75ZM14.8752 15.75C14.8752 15.2667 15.2669 14.875 15.7502 14.875H23.9168C24.4001 14.875 24.7918 15.2667 24.7918 15.75V23.9166C24.7918 24.3999 24.4001 24.7916 23.9168 24.7916H15.7502C15.2669 24.7916 14.8752 24.3999 14.8752 23.9166V15.75Z" fill="#4941ED"/>
</svg>
