<svg width="28" height="28" viewBox="0 0 28 28" fill="none" xmlns="http://www.w3.org/2000/svg">
<path fill-rule="evenodd" clip-rule="evenodd" d="M14.0001 9.18876C12.5439 9.18876 11.3634 10.3693 11.3634 11.8255C11.3634 13.2817 12.5439 14.4622 14.0001 14.4622C15.4563 14.4622 16.6368 13.2817 16.6368 11.8255C16.6368 10.3693 15.4563 9.18876 14.0001 9.18876ZM9.63672 11.8255C9.63672 9.41565 11.5903 7.4621 14.0001 7.4621C16.4099 7.4621 18.3635 9.41565 18.3635 11.8255C18.3635 14.2353 16.4099 16.1889 14.0001 16.1889C11.5903 16.1889 9.63672 14.2353 9.63672 11.8255Z" fill="#B5B4BF"/>
<path fill-rule="evenodd" clip-rule="evenodd" d="M14.0002 3.93864C11.8975 3.93864 9.88755 4.74119 8.41092 6.15934C6.93548 7.57635 6.11339 9.49062 6.11339 11.4789C6.11339 14.9373 8.12577 18.0958 10.2651 20.4586C11.3227 21.6266 12.3828 22.5687 13.1789 23.2186C13.504 23.4839 13.7839 23.6996 14.0002 23.8613C14.2165 23.6996 14.4964 23.4839 14.8214 23.2186C15.6176 22.5687 16.6777 21.6266 17.7353 20.4586C19.8746 18.0958 21.887 14.9373 21.887 11.4789C21.887 9.49062 21.0649 7.57635 19.5894 6.15934C18.1128 4.74119 16.1029 3.93864 14.0002 3.93864ZM14.0002 24.9247C13.5185 25.6411 13.5183 25.641 13.518 25.6408L13.5173 25.6403L13.5152 25.6389L13.5088 25.6346L13.4866 25.6194C13.4677 25.6065 13.4408 25.5878 13.4063 25.5637C13.3374 25.5153 13.2383 25.4448 13.1133 25.3531C12.8636 25.1698 12.5099 24.9014 12.087 24.5561C11.2425 23.8667 10.1151 22.8654 8.98514 21.6175C6.7494 19.1482 4.38672 15.5837 4.38672 11.4789C4.38672 9.00965 5.4084 6.64894 7.21489 4.91399C9.0202 3.18018 11.4615 2.21198 14.0002 2.21198C16.5388 2.21198 18.9802 3.18018 20.7855 4.91399C22.592 6.64894 23.6137 9.00965 23.6137 11.4789C23.6137 15.5837 21.251 19.1482 19.0152 21.6175C17.8853 22.8654 16.7579 23.8667 15.9133 24.5561C15.4904 24.9014 15.1368 25.1698 14.887 25.3531C14.7621 25.4448 14.663 25.5153 14.5941 25.5637C14.5596 25.5878 14.5326 25.6065 14.5138 25.6194L14.4916 25.6346L14.4851 25.6389L14.4831 25.6403L14.4824 25.6408C14.4821 25.641 14.4819 25.6411 14.0002 24.9247ZM14.0002 24.9247L14.4819 25.6411C14.1906 25.837 13.8098 25.837 13.5185 25.6411L14.0002 24.9247Z" fill="#B5B4BF"/>
</svg>
