<svg width="28" height="28" viewBox="0 0 28 28" fill="none" xmlns="http://www.w3.org/2000/svg">
<path d="M13.9883 2.21198C11.4365 2.21489 8.9901 3.19043 7.18572 4.92462C5.38134 6.65882 4.36631 9.01005 4.36328 11.4626C4.36328 19.3778 13.1133 25.3565 13.4858 25.607C13.6332 25.7059 13.8086 25.7589 13.9883 25.7589C14.168 25.7589 14.3434 25.7059 14.4907 25.607C14.8633 25.3565 23.6133 19.3778 23.6133 11.4626C23.6103 9.01005 22.5952 6.65882 20.7908 4.92462C18.9865 3.19043 16.5401 2.21488 13.9883 2.21198V2.21198ZM13.9889 8.09902C14.6812 8.09902 15.3578 8.29631 15.9334 8.66593C16.509 9.03555 16.9576 9.56092 17.2225 10.1756C17.4874 10.7902 17.5567 11.4666 17.4217 12.1191C17.2866 12.7716 16.9533 13.371 16.4638 13.8415C15.9743 14.3119 15.3507 14.6323 14.6717 14.7621C13.9928 14.8919 13.2891 14.8253 12.6495 14.5707C12.01 14.3161 11.4634 13.8849 11.0788 13.3317C10.6942 12.7785 10.4889 12.1282 10.4889 11.4629C10.4889 11.0211 10.5794 10.5837 10.7553 10.1756C10.9312 9.76744 11.189 9.3966 11.514 9.08424C11.839 8.77187 12.2249 8.5241 12.6495 8.35505C13.0742 8.18601 13.5293 8.09901 13.9889 8.09902V8.09902Z" fill="#4941ED"/>
</svg>
