<svg width="24" height="24" viewBox="0 0 24 24" fill="none" xmlns="http://www.w3.org/2000/svg">
<path d="M4.6307 15.4525C3.9927 15.4525 3.82093 15.9187 4.19719 16.434L6.16028 19.1823C6.45475 19.6077 6.9128 19.5995 7.20726 19.1823L9.17036 16.4258C9.53844 15.9187 9.35849 15.4525 8.73684 15.4525H7.52627V9.42412C7.52627 8.06632 8.3524 7.19929 9.50572 7.19929C10.659 7.19929 11.5015 8.04996 11.5015 9.42412V15.0271C11.5015 17.4564 13.0475 19.0678 15.1823 19.0678C17.3581 19.0678 18.8468 17.4646 18.8468 15.0271V9.04786H20.0655C20.6872 9.04786 20.8589 8.58163 20.499 8.0745L18.5359 5.30981C18.2415 4.90083 17.7834 4.89265 17.4808 5.30981L15.5177 8.06632C15.1496 8.58163 15.3214 9.04786 15.9512 9.04786H17.1618V15.1498C17.1618 16.5076 16.3356 17.3747 15.1823 17.3747C14.029 17.3747 13.1865 16.524 13.1865 15.1498V9.54682C13.1865 7.11749 11.6406 5.5143 9.50572 5.5143C7.32996 5.5143 5.84128 7.10931 5.84128 9.54682V15.4525H4.6307Z" fill="#1C1C1E"/>
</svg>
