<svg width="21" height="20" viewBox="0 0 21 20" fill="none" xmlns="http://www.w3.org/2000/svg">
<path fill-rule="evenodd" clip-rule="evenodd" d="M8.83333 3.125C5.95685 3.125 3.625 5.45685 3.625 8.33333C3.625 11.2098 5.95685 13.5417 8.83333 13.5417C10.2718 13.5417 11.573 12.9594 12.5162 12.0162C13.4594 11.073 14.0417 9.77175 14.0417 8.33333C14.0417 5.45685 11.7098 3.125 8.83333 3.125ZM2.375 8.33333C2.375 4.76649 5.26649 1.875 8.83333 1.875C12.4002 1.875 15.2917 4.76649 15.2917 8.33333C15.2917 9.89142 14.7393 11.3214 13.8207 12.4368L17.6086 16.2247C17.8527 16.4688 17.8527 16.8645 17.6086 17.1086C17.3645 17.3527 16.9688 17.3527 16.7247 17.1086L12.9368 13.3207C11.8214 14.2393 10.3914 14.7917 8.83333 14.7917C5.26649 14.7917 2.375 11.9002 2.375 8.33333Z" fill="#0B0A28"/>
</svg>
