<svg width="24" height="24" viewBox="0 0 24 24" fill="none" xmlns="http://www.w3.org/2000/svg">
<path fill-rule="evenodd" clip-rule="evenodd" d="M14 3.75C17.4518 3.75 20.25 6.54822 20.25 10C20.25 13.4518 17.4518 16.25 14 16.25C12.2739 16.25 10.7124 15.5513 9.58058 14.4194C8.44874 13.2876 7.75 11.7261 7.75 10C7.75 6.54822 10.5482 3.75 14 3.75ZM21.75 10C21.75 5.71979 18.2802 2.25 14 2.25C9.71979 2.25 6.25 5.71979 6.25 10C6.25 11.8697 6.91286 13.5857 8.01519 14.9242L3.46967 19.4697C3.17678 19.7626 3.17678 20.2375 3.46967 20.5304C3.76257 20.8232 4.23744 20.8232 4.53033 20.5304L9.07585 15.9848C10.4143 17.0872 12.1303 17.75 14 17.75C18.2802 17.75 21.75 14.2802 21.75 10Z" fill="#0B0A28"/>
</svg>
